<svg width="16" height="16" viewBox="0 0 16 16" fill="none" xmlns="http://www.w3.org/2000/svg">
    <path fill-rule="evenodd" clip-rule="evenodd" d="M8 16C12.4183 16 16 12.4183 16 8C16 3.58172 12.4183 0 8 0C3.58172 0 0 3.58172 0 8C0 12.4183 3.58172 16 8 16L7.13448 14.5004V14.5004C6.4111 13.2475 5.18774 12.3565 4.23895 11.2643C3.47963 10.3902 3.02 9.24877 3.02 8C3.02 5.24962 5.24962 3.02 8 3.02C10.7504 3.02 12.98 5.24962 12.98 8C12.98 9.24799 12.5209 10.3888 11.7625 11.2627C10.8138 12.3557 9.59016 13.2471 8.86654 14.5004V14.5004L8 16Z" fill="white"/>
    <path fill-rule="evenodd" clip-rule="evenodd" d="M5.2627 9.22759C5.08592 8.83445 5.00072 8.41925 5.00002 8.00841C4.99852 7.5882 5.08537 7.16308 5.26815 6.76132C5.41377 6.43951 5.61685 6.14158 5.87285 5.88449C6.13488 5.62067 6.44003 5.41228 6.77005 5.26421C7.16671 5.08526 7.58591 4.99961 8.00051 5C8.41512 4.99961 8.83433 5.08526 9.23101 5.26422C9.56102 5.4123 9.86617 5.62069 10.1282 5.88451C10.3842 6.14158 10.5872 6.4395 10.7328 6.76127C10.9156 7.16304 11.0025 7.58818 11.001 8.0084C11.0003 8.41927 10.9151 8.8345 10.7383 9.22767C10.6887 9.33845 10.6324 9.44645 10.5694 9.55096L9.73256 11.0005L8.00051 14.0005L6.26846 11.0005L5.43158 9.55097C5.36861 9.44643 5.31226 9.33841 5.2627 9.22759ZM8.50059 8.86667C8.65234 8.77887 8.77887 8.65233 8.86667 8.50059C8.95179 8.35348 9.00051 8.18268 9.00051 8.00049C9.00051 7.44821 8.55279 7.00049 8.00051 7.00049C7.44822 7.00049 7.00051 7.44821 7.00051 8.00049C7.00051 8.18267 7.04922 8.35348 7.13434 8.50058C7.22214 8.65233 7.34867 8.77886 7.50042 8.86666C7.64753 8.95178 7.81833 9.0005 8.00051 9.0005C8.18268 9.0005 8.35348 8.95178 8.50059 8.86667Z" fill="white"/>
</svg>
